#!OML:ASF F:\twosubjects\two\Thursday\Session 1\Rory.ASF
:FULLY-SPECIFIED
:DEGREES
365
root 10.0608 14.5119 12.0474 -139.204 -48.2609 164.691
lowerback 27.9825 -2.32667 3.46784
upperback 10.7864 -4.16191 -6.72884
thorax -4.03048 -2.45503 -8.17421
lowerneck -6.68507 -16.9639 -6.93371
upperneck -18.0894 -21.4741 35.6897
head 1.15661 -12.8463 10.7722
rclavicle -6.31141e-015 5.82688e-014
rhumerus 5.35296 -12.3366 -64.127
rradius 132.849
rwrist 28.5692
rhand 14.1582 15.5374
rfingers 7.12502
rthumb 39.0587 -9.96585
lclavicle -6.31141e-015 5.82688e-014
lhumerus 51.096 -71.8345 36.5997
lradius 88.9673
lwrist -9.09655
lhand -28.9781 64.0082
lfingers 7.12502
lthumb -2.33055 -93.9752
rfemur -12.4376 -3.16454 5.06844
rtibia 63.1933
rfoot -22.7738 -19.373
rtoes -24.9111
lfemur -90.0322 5.15383 -21.5988
ltibia 60.2869
lfoot 9.88935 -20.9017
ltoes 25.715
366
root 10.0601 14.5338 12.0667 -139.177 -48.5108 165.037
lowerback 27.8177 -1.78304 3.54582
upperback 10.5873 -3.33597 -6.11939
thorax -4.00557 -2.03677 -7.79282
lowerneck -5.47339 -17.2073 -6.72789
upperneck -19.2435 -21.4619 35.4547
head 0.548648 -13.0337 10.8803
rclavicle 7.95139e-015 3.91606e-014
rhumerus 4.36182 -13.4604 -62.6407
rradius 133.05
rwrist 28.2293
rhand 14.3153 15.694
rfingers 7.12502
rthumb 39.2067 -9.76648
lclavicle 7.95139e-015 3.91606e-014
lhumerus 53.4102 -72.7201 35.6635
lradius 89.1577
lwrist -9.1758
lhand -27.6137 63.7466
lfingers 7.12502
lthumb -1.01282 -93.724
rfemur -12.6226 -3.14657 5.59845
rtibia 62.872
rfoot -22.5436 -20.1839
rtoes -25.5684
lfemur -90.1459 5.02151 -21.1907
ltibia 59.8008
lfoot 10.2036 -20.7168
ltoes 25.9592
367
root 10.0602 14.5332 12.0916 -138.786 -48.6611 164.915
lowerback 27.6645 -1.28163 3.4543
upperback 10.4531 -2.63646 -5.64899
thorax -3.94895 -1.68628 -7.42647
lowerneck -4.44822 -17.4272 -6.42622
upperneck -20.4047 -21.4405 35.2422
head -0.04148 -13.2129 10.9804
rclavicle 3.97569e-014 -4.63168e-014
rhumerus 3.21031 -14.3115 -61.3536
rradius 133.496
rwrist 28.1559
rhand 14.4064 15.268
rfingers 7.12502
rthumb 39.2926 -10.1676
lclavicle 3.97569e-014 -4.63168e-014
lhumerus 56.8598 -73.4909 33.3846
lradius 89.0447
lwrist -9.10542
lhand -27.8878 64.4322
lfingers 7.12502
lthumb -1.27756 -94.4082
rfemur -12.8453 -3.35268 5.6954
rtibia 62.7206
rfoot -21.9961 -20.8965
rtoes -26.9655
lfemur -90.2856 4.78499 -21.1932
ltibia 59.3773
lfoot 10.8338 -20.3754
ltoes 27.4257
368
root 10.0571 14.5478 12.1124 -138.384 -48.7108 164.677
lowerback 27.6069 -1.01417 3.07588
upperback 10.4388 -2.32695 -5.10538
thorax -3.86675 -1.53983 -6.684
lowerneck -4.0917 -17.5203 -6.71722
upperneck -21.2131 -21.3805 35.1167
head -0.327589 -13.2687 11.0906
rclavicle -2.10712e-014 -7.77248e-014
rhumerus 3.32376 -14.5075 -60.1796
rradius 133.541
rwrist 28.1611
rhand 14.7069 14.461
rfingers 7.12502
rthumb 39.5757 -10.8916
lclavicle -2.10712e-014 -7.77248e-014
lhumerus 58.2111 -73.4716 33.1111
lradius 88.363
lwrist -9.03984
lhand -30.4856 67.4149
lfingers 7.12502
lthumb -3.78637 -97.361
rfemur -12.9762 -3.46832 5.62178
rtibia 62.5659
rfoot -22.0148 -21.1754
rtoes -26.5894
lfemur -90.2853 4.5262 -21.303
ltibia 58.9637
lfoot 11.1663 -20.0791
ltoes 27.7228
369
root 10.0621 14.558 12.1228 -138.413 -48.8143 164.946
lowerback 27.589 -0.76681 2.77332
upperback 10.4264 -2.02387 -4.49754
thorax -3.80954 -1.39932 -5.91621
lowerneck -3.91644 -17.5627 -7.16937
upperneck -21.871 -21.3082 35.1154
head -0.498698 -13.2913 11.2301
rclavicle 1.35174e-013 1.39149e-014
rhumerus 3.48644 -14.7321 -59.2646
rradius 133.591
rwrist 28.2402
rhand 14.8767 14.4128
rfingers 7.12502
rthumb 39.7356 -10.8925
lclavicle 1.35174e-013 1.39149e-014
lhumerus 58.0481 -73.2084 34.3156
lradius 88.6058
lwrist -9.06209
lhand -27.9874 65.0243
lfingers 7.12502
lthumb -1.37375 -94.9996
rfemur -13.1174 -3.08239 6.01336
rtibia 62.3771
rfoot -22.7904 -21.25
rtoes -24.0943
lfemur -90.2812 4.56023 -21.1145
ltibia 58.5427
lfoot 11.2093 -20.0939
ltoes 27.7111
370
root 10.069 14.5828 12.1244 -138.664 -48.7035 165.251
lowerback 27.7608 -0.458638 2.36933
upperback 10.4084 -1.69848 -4.06565
thorax -3.8568 -1.25594 -5.29603
lowerneck -3.7162 -17.5686 -7.49526
upperneck -22.3807 -21.2182 35.1057
head -0.653937 -13.2946 11.3483
rclavicle 1.54257e-013 1.01778e-013
rhumerus 3.41584 -14.9092 -58.5939
rradius 133.608
rwrist 28.3424
rhand 14.5106 14.4881
rfingers 7.12502
rthumb 39.3908 -10.9189
lclavicle 1.54257e-013 1.01778e-013
lhumerus 57.8837 -73.1175 35.2171
lradius 89.1134
lwrist -9.10885
lhand -25.053 63.9591
lfingers 7.12502
lthumb 1.46042 -93.9338
rfemur -13.0574 -2.57298 6.28533
rtibia 62.1009
rfoot -23.1994 -21.5895
rtoes -24.3671
lfemur -90.0227 4.82591 -21.1058
ltibia 58.1535
lfoot 10.906 -20.3819
ltoes 27.2244
371
root 10.0659 14.635 12.1303 -138.364 -48.4023 165.033
lowerback 27.8014 -0.3022 1.92906
upperback 10.3408 -1.59636 -3.95347
thorax -3.93499 -1.21625 -4.94468
lowerneck -3.58694 -17.5267 -7.68928
upperneck -22.6125 -21.1183 35.0415
head -0.746695 -13.2608 11.4058
rclavicle -1.59028e-015 7.196e-014
rhumerus 3.39358 -14.6995 -58.2119
rradius 133.63
rwrist 28.5356
rhand 14.4209 13.1379
rfingers 7.12502
rthumb 39.3063 -12.2937
lclavicle -1.59028e-015 7.196e-014
lhumerus 57.0647 -73.0765 36.2597
lradius 89.4869
lwrist -9.22644
lhand -23.494 64.2579
lfingers 7.12502
lthumb 2.96603 -94.2171
rfemur -13.1341 -2.87841 5.86905
rtibia 61.6956
rfoot -22.5697 -21.9009
rtoes -26.9124
lfemur -89.7922 4.85976 -21.4582
ltibia 57.7059
lfoot 10.6291 -20.4542
ltoes 24.3836
372
root 10.0635 14.6306 12.1471 -137.629 -48.0456 164.383
lowerback 27.7038 -0.242939 1.43622
upperback 10.2948 -1.64354 -3.99696
thorax -3.94236 -1.24613 -4.69135
lowerneck -3.64954 -17.5204 -7.81744
upperneck -22.7074 -21.0982 35.0438
head -0.749384 -13.2512 11.4264
rclavicle 2.14687e-014 -6.36111e-015
rhumerus 3.43719 -14.8556 -57.7739
rradius 133.671
rwrist 28.3841
rhand 15.3689 11.1622
rfingers 7.12502
rthumb 40.1988 -14.0036
lclavicle 2.14687e-014 -6.36111e-015
lhumerus 56.5849 -72.9669 36.6488
lradius 89.5037
lwrist -9.25269
lhand -24.9625 66.2208
lfingers 7.12502
lthumb 1.54774 -96.1949
rfemur -13.3193 -3.13047 5.13528
rtibia 61.4585
rfoot -22.4105 -21.9716
rtoes -27.5476
lfemur -89.8888 4.66012 -22.041
ltibia 57.3601
lfoot 10.5837 -20.3722
ltoes 20.7295
373
root 10.0608 14.6525 12.1539 -137.304 -47.8804 164.108
lowerback 27.6898 -0.0809707 1.03593
upperback 10.2816 -1.51559 -3.758
thorax -3.9299 -1.19304 -4.23244
lowerneck -3.52825 -17.5707 -8.00102
upperneck -23.1528 -21.0914 34.9957
head -0.882855 -13.2903 11.4875
rclavicle -1.03368e-014 1.15295e-014
rhumerus 3.23713 -14.7329 -57.6023
rradius 133.844
rwrist 28.9754
rhand 15.6102 12.1271
rfingers 7.12502
rthumb 40.4257 -12.9691
lclavicle -1.03368e-014 1.15295e-014
lhumerus 57.6549 -72.8617 36.102
lradius 88.6516
lwrist -9.06203
lhand -28.6744 68.2683
lfingers 7.12502
lthumb -2.03723 -98.2383
rfemur -13.3346 -2.85746 4.92027
rtibia 61.1328
rfoot -22.6279 -22.0819
rtoes -26.8931
lfemur -90.102 5.80016 -24.551
ltibia 56.9734
lfoot 12.1183 -22.2134
ltoes 22.6325
